<?xml version="1.0" encoding="UTF-8"?><svg id="_레이어_2" xmlns="http://www.w3.org/2000/svg" viewBox="0 0 133 58"><defs><style>.cls-1{fill:#606060;}.cls-1,.cls-2,.cls-3{stroke-width:0px;}.cls-2{fill:#55b4a5;}.cls-3{fill:#111;}</style></defs><g id="_레이어_2-2"><polygon class="cls-3" points="22 12 22 23 8 23 8 12 0 12 0 39 8 39 8 31 22 31 22 39 30 39 30 12 22 12"/><rect class="cls-3" x="123" y="15" width="8" height="24"/><path class="cls-2" d="M127,0h0c3.31,0,6,2.69,6,6h0c0,3.31-2.69,6-6,6h0c-3.31,0-6-2.69-6-6h0c0-3.31,2.69-6,6-6Z"/><polygon class="cls-3" points="121 15 111.5 15 106.5 21.15 101.5 15 92 15 101.75 27 92 39 101.5 39 106.5 32.85 111.5 39 121 39 111.25 27 121 15"/><path class="cls-3" d="M47,14c-10,0-15,5-15,13s5,13,15,13c9,0,15-5,15-13s-5-13-15-13ZM47,33.07c-4.67,0-7-2.33-7-6.07s2.33-6.07,7-6.07,7,2.33,7,6.07-2.8,6.07-7,6.07Z"/><path class="cls-3" d="M78,14c-10,0-15,5-15,13s5,13,15,13c9,0,15-5,15-13s-5-13-15-13ZM78,33.07c-4.67,0-7-2.33-7-6.07s2.33-6.07,7-6.07,7,2.33,7,6.07-2.8,6.07-7,6.07Z"/><path class="cls-1" d="M7.75,48H1v10h2v-3.5h4.75c1.79,0,3.25-1.46,3.25-3.25s-1.46-3.25-3.25-3.25ZM7.75,52.5H3v-2.5h4.75c.69,0,1.25.56,1.25,1.25s-.56,1.25-1.25,1.25Z"/><path class="cls-1" d="M45,51.25c0-1.79-1.46-3.25-3.25-3.25h-6.75v10h2v-3.5h4.6l1.4,3.5h2l-1.59-3.97c.95-.57,1.59-1.59,1.59-2.78ZM37,50h4.75c.69,0,1.25.56,1.25,1.25s-.56,1.25-1.25,1.25h-4.75v-2.5Z"/><polygon class="cls-1" points="77 56 76.8 56 72 48 71 48 70 48 69 48 69 50 69 58 71 58 71 50 71.2 50 76 58 77 58 78 58 79 58 79 48 77 48 77 56"/><polygon class="cls-1" points="56 48 52 48 52 50 56 50 56 58 58 58 58 50 62 50 62 48 58 48 56 48"/><polygon class="cls-1" points="87 48 87 50 87 52 87 54 87 56 87 58 89 58 96 58 96 56 89 56 89 54 96 54 96 52 89 52 89 50 96 50 96 48 89 48 87 48"/><path class="cls-1" d="M22,48h-2l-4,10h2l1.4-3.5h5.2l1.4,3.5h2l-4-10s-2,0-2,0ZM20.2,52.5l1-2.5h1.6l1,2.5h-3.6Z"/><path class="cls-1" d="M114,51.25c0-1.79-1.46-3.25-3.25-3.25h-6.75v10h2v-3.5h4.6l1.4,3.5h2l-1.59-3.97c.95-.57,1.59-1.59,1.59-2.78ZM106,50h4.75c.69,0,1.25.56,1.25,1.25s-.56,1.25-1.25,1.25h-4.75v-2.5Z"/><path class="cls-1" d="M128,52h-4c-.55,0-1-.45-1-1s.45-1,1-1h4c.41,0,.75.34.75.75h2c0-1.52-1.23-2.75-2.75-2.75h-4.29v.03c-1.52.15-2.72,1.41-2.72,2.97s1.19,2.83,2.72,2.97v.03h4.29c.55,0,1,.45,1,1s-.45,1-1,1h-4.25c-.41,0-.75-.34-.75-.75h-2c0,1.52,1.23,2.75,2.75,2.75h4.25c1.66,0,3-1.34,3-3s-1.34-3-3-3Z"/></g></svg>